<mxfile host="drawio-plugin" modified="2021-03-21T10:14:01.856Z" agent="5.0 (Windows NT 6.2; Win64; x64) AppleWebKit/537.36 (KHTML, like Gecko) Chrome/84.0.4147.105 Safari/537.36" etag="oV29ax_0lK9vcQfOHnfM" version="13.7.9" type="embed"><diagram name="Page-1" id="9f46799a-70d6-7492-0946-bef42562c5a5"><mxGraphModel dx="1298" dy="838" grid="1" gridSize="10" guides="1" tooltips="1" connect="1" arrows="1" fold="1" page="1" pageScale="1" pageWidth="307" pageHeight="300" background="#ffffff" math="0" shadow="1"><root><mxCell id="0"/><mxCell id="1" parent="0"/><mxCell id="b2mbYdQ5OWqlQgxGF-j2-6" value="" style="edgeStyle=orthogonalEdgeStyle;rounded=0;orthogonalLoop=1;jettySize=auto;html=1;fontSize=14;fontColor=#000000;curved=1;strokeColor=#000000;" parent="1" source="b2mbYdQ5OWqlQgxGF-j2-1" target="b2mbYdQ5OWqlQgxGF-j2-5" edge="1"><mxGeometry relative="1" as="geometry"/></mxCell><mxCell id="b2mbYdQ5OWqlQgxGF-j2-16" value="" style="edgeStyle=orthogonalEdgeStyle;curved=1;rounded=0;orthogonalLoop=1;jettySize=auto;html=1;fontSize=14;fontColor=#000000;strokeColor=#000000;" parent="1" source="b2mbYdQ5OWqlQgxGF-j2-1" target="b2mbYdQ5OWqlQgxGF-j2-15" edge="1"><mxGeometry relative="1" as="geometry"/></mxCell><mxCell id="b2mbYdQ5OWqlQgxGF-j2-1" value="&lt;div style=&quot;text-align: center ; box-sizing: border-box ; width: 100% ; background: rgb(228 , 228 , 228) ; padding: 2px ; font-size: 14px&quot;&gt;&lt;b&gt;users&lt;/b&gt;&lt;/div&gt;&lt;table style=&quot;width: 100% ; font-size: 14px&quot; cellpadding=&quot;2&quot; cellspacing=&quot;0&quot;&gt;&lt;tbody style=&quot;font-size: 14px&quot;&gt;&lt;tr style=&quot;font-size: 14px&quot;&gt;&lt;td style=&quot;font-size: 14px&quot;&gt;PK&lt;/td&gt;&lt;td style=&quot;font-size: 14px&quot;&gt;steamID&lt;/td&gt;&lt;/tr&gt;&lt;tr style=&quot;font-size: 14px&quot;&gt;&lt;td style=&quot;font-size: 14px&quot;&gt;&lt;/td&gt;&lt;td style=&quot;font-size: 14px&quot;&gt;&lt;/td&gt;&lt;/tr&gt;&lt;/tbody&gt;&lt;/table&gt;&lt;span&gt;&lt;div style=&quot;text-align: center&quot;&gt;&lt;span&gt;&lt;i&gt;список пользователей&lt;/i&gt;&lt;/span&gt;&lt;/div&gt;&lt;/span&gt;&lt;ul style=&quot;font-size: 14px&quot;&gt;&lt;li style=&quot;font-size: 14px&quot;&gt;login&lt;/li&gt;&lt;li style=&quot;font-size: 14px&quot;&gt;steamID&lt;/li&gt;&lt;li style=&quot;font-size: 14px&quot;&gt;avatar_url&lt;/li&gt;&lt;li style=&quot;font-size: 14px&quot;&gt;wallet_balance&lt;/li&gt;&lt;/ul&gt;" style="verticalAlign=top;align=left;overflow=fill;html=1;rounded=0;glass=0;sketch=0;shadow=0;perimeterSpacing=1;fillColor=#FFFFFF;labelBorderColor=#000000;horizontal=1;metaEdit=0;collapsible=0;dropTarget=0;container=0;arcSize=12;fillOpacity=100;strokeOpacity=100;labelPadding=0;fontSize=14;fontColor=#000000;" parent="1" vertex="1"><mxGeometry x="40" y="40" width="160" height="160" as="geometry"/></mxCell><mxCell id="b2mbYdQ5OWqlQgxGF-j2-11" value="" style="edgeStyle=orthogonalEdgeStyle;curved=1;rounded=0;orthogonalLoop=1;jettySize=auto;html=1;fontSize=14;fontColor=#000000;strokeColor=#000000;" parent="1" source="b2mbYdQ5OWqlQgxGF-j2-4" target="b2mbYdQ5OWqlQgxGF-j2-8" edge="1"><mxGeometry relative="1" as="geometry"/></mxCell><mxCell id="b2mbYdQ5OWqlQgxGF-j2-4" value="&lt;div style=&quot;text-align: center ; box-sizing: border-box ; width: 100% ; background: rgb(228 , 228 , 228) ; padding: 2px ; font-size: 14px&quot;&gt;&lt;b&gt;items&lt;/b&gt;&lt;/div&gt;&lt;table style=&quot;width: 100% ; font-size: 14px&quot; cellpadding=&quot;2&quot; cellspacing=&quot;0&quot;&gt;&lt;tbody style=&quot;font-size: 14px&quot;&gt;&lt;tr style=&quot;font-size: 14px&quot;&gt;&lt;td style=&quot;font-size: 14px&quot;&gt;PK&lt;/td&gt;&lt;td style=&quot;font-size: 14px&quot;&gt;assetid&lt;/td&gt;&lt;/tr&gt;&lt;/tbody&gt;&lt;/table&gt;&lt;span&gt;&lt;div style=&quot;text-align: center&quot;&gt;&lt;span&gt;&lt;i&gt;список предметов&lt;/i&gt;&lt;/span&gt;&lt;/div&gt;&lt;div style=&quot;text-align: center&quot;&gt;&lt;span&gt;&lt;i&gt;в инвентаре&lt;/i&gt;&lt;/span&gt;&lt;/div&gt;&lt;/span&gt;&lt;ul&gt;&lt;li&gt;assetid&lt;/li&gt;&lt;li&gt;classid&lt;/li&gt;&lt;li&gt;tradable&lt;/li&gt;&lt;/ul&gt;" style="verticalAlign=top;align=left;overflow=fill;html=1;rounded=0;glass=0;sketch=0;shadow=0;perimeterSpacing=1;fillColor=#FFFFFF;labelBorderColor=#000000;horizontal=1;metaEdit=0;collapsible=0;dropTarget=0;container=0;arcSize=12;fillOpacity=100;strokeOpacity=100;labelPadding=0;fontSize=14;fontColor=#000000;" parent="1" vertex="1"><mxGeometry x="280" y="160" width="160" height="160" as="geometry"/></mxCell><mxCell id="b2mbYdQ5OWqlQgxGF-j2-7" value="" style="edgeStyle=orthogonalEdgeStyle;curved=1;rounded=0;orthogonalLoop=1;jettySize=auto;html=1;fontSize=14;fontColor=#000000;strokeColor=#000000;" parent="1" source="b2mbYdQ5OWqlQgxGF-j2-5" target="b2mbYdQ5OWqlQgxGF-j2-4" edge="1"><mxGeometry relative="1" as="geometry"/></mxCell><mxCell id="b2mbYdQ5OWqlQgxGF-j2-5" value="&lt;div style=&quot;text-align: center ; box-sizing: border-box ; width: 100% ; background: rgb(228 , 228 , 228) ; padding: 2px ; font-size: 14px&quot;&gt;&lt;b&gt;user items&lt;/b&gt;&lt;/div&gt;&lt;table style=&quot;width: 100% ; font-size: 14px&quot; cellpadding=&quot;2&quot; cellspacing=&quot;0&quot;&gt;&lt;tbody style=&quot;font-size: 14px&quot;&gt;&lt;tr style=&quot;font-size: 14px&quot;&gt;&lt;td style=&quot;font-size: 14px&quot;&gt;PK&lt;/td&gt;&lt;td style=&quot;font-size: 14px&quot;&gt;steamID&lt;/td&gt;&lt;/tr&gt;&lt;tr style=&quot;font-size: 14px&quot;&gt;&lt;td style=&quot;font-size: 14px&quot;&gt;FK&lt;/td&gt;&lt;td style=&quot;font-size: 14px&quot;&gt;assetid&lt;/td&gt;&lt;/tr&gt;&lt;tr style=&quot;font-size: 14px&quot;&gt;&lt;td style=&quot;font-size: 14px&quot;&gt;&lt;br style=&quot;font-size: 14px&quot;&gt;&lt;/td&gt;&lt;td style=&quot;font-size: 14px&quot;&gt;&lt;br style=&quot;font-size: 14px&quot;&gt;&lt;/td&gt;&lt;/tr&gt;&lt;/tbody&gt;&lt;/table&gt;" style="verticalAlign=top;align=left;overflow=fill;html=1;rounded=0;glass=0;sketch=0;shadow=0;perimeterSpacing=1;fillColor=#FFFFFF;labelBorderColor=#000000;horizontal=1;metaEdit=0;collapsible=0;dropTarget=0;container=0;arcSize=12;fillOpacity=100;strokeOpacity=100;labelPadding=0;fontSize=14;fontColor=#000000;" parent="1" vertex="1"><mxGeometry x="280" y="40" width="160" height="80" as="geometry"/></mxCell><mxCell id="b2mbYdQ5OWqlQgxGF-j2-12" value="" style="edgeStyle=orthogonalEdgeStyle;curved=1;rounded=0;orthogonalLoop=1;jettySize=auto;html=1;fontSize=14;fontColor=#000000;strokeColor=#000000;" parent="1" source="b2mbYdQ5OWqlQgxGF-j2-8" target="b2mbYdQ5OWqlQgxGF-j2-9" edge="1"><mxGeometry relative="1" as="geometry"/></mxCell><mxCell id="b2mbYdQ5OWqlQgxGF-j2-8" value="&lt;div style=&quot;text-align: center ; box-sizing: border-box ; width: 100% ; background: rgb(228 , 228 , 228) ; padding: 2px ; font-size: 14px&quot;&gt;&lt;b&gt;item descriptions&lt;/b&gt;&lt;/div&gt;&lt;table style=&quot;width: 100% ; font-size: 14px&quot; cellpadding=&quot;2&quot; cellspacing=&quot;0&quot;&gt;&lt;tbody style=&quot;font-size: 14px&quot;&gt;&lt;tr style=&quot;font-size: 14px&quot;&gt;&lt;td style=&quot;font-size: 14px&quot;&gt;PK&lt;/td&gt;&lt;td style=&quot;font-size: 14px&quot;&gt;assetid&lt;/td&gt;&lt;/tr&gt;&lt;tr style=&quot;font-size: 14px&quot;&gt;&lt;td style=&quot;font-size: 14px&quot;&gt;FK&lt;/td&gt;&lt;td style=&quot;font-size: 14px&quot;&gt;classid&lt;/td&gt;&lt;/tr&gt;&lt;tr style=&quot;font-size: 14px&quot;&gt;&lt;td style=&quot;font-size: 14px&quot;&gt;&lt;br style=&quot;font-size: 14px&quot;&gt;&lt;/td&gt;&lt;td style=&quot;font-size: 14px&quot;&gt;&lt;br style=&quot;font-size: 14px&quot;&gt;&lt;/td&gt;&lt;/tr&gt;&lt;/tbody&gt;&lt;/table&gt;" style="verticalAlign=top;align=left;overflow=fill;html=1;rounded=0;glass=0;sketch=0;shadow=0;perimeterSpacing=1;fillColor=#FFFFFF;labelBorderColor=#000000;horizontal=1;metaEdit=0;collapsible=0;dropTarget=0;container=0;arcSize=12;fillOpacity=100;strokeOpacity=100;labelPadding=0;fontSize=14;fontColor=#000000;" parent="1" vertex="1"><mxGeometry x="480" y="40" width="160" height="80" as="geometry"/></mxCell><mxCell id="b2mbYdQ5OWqlQgxGF-j2-19" value="" style="edgeStyle=orthogonalEdgeStyle;curved=1;rounded=0;orthogonalLoop=1;jettySize=auto;html=1;fontSize=14;fontColor=#000000;strokeColor=#000000;" parent="1" source="b2mbYdQ5OWqlQgxGF-j2-9" target="b2mbYdQ5OWqlQgxGF-j2-18" edge="1"><mxGeometry relative="1" as="geometry"/></mxCell><mxCell id="b2mbYdQ5OWqlQgxGF-j2-9" value="&lt;div style=&quot;text-align: center ; box-sizing: border-box ; width: 100% ; background: rgb(228 , 228 , 228) ; padding: 2px ; font-size: 14px&quot;&gt;&lt;b&gt;descriptions&lt;/b&gt;&lt;/div&gt;&lt;table style=&quot;width: 100% ; font-size: 14px&quot; cellpadding=&quot;2&quot; cellspacing=&quot;0&quot;&gt;&lt;tbody style=&quot;font-size: 14px&quot;&gt;&lt;tr style=&quot;font-size: 14px&quot;&gt;&lt;td style=&quot;font-size: 14px&quot;&gt;PK&lt;/td&gt;&lt;td style=&quot;font-size: 14px&quot;&gt;classid&lt;/td&gt;&lt;/tr&gt;&lt;tr style=&quot;font-size: 14px&quot;&gt;&lt;td style=&quot;font-size: 14px&quot;&gt;&lt;/td&gt;&lt;td style=&quot;font-size: 14px&quot;&gt;&lt;/td&gt;&lt;/tr&gt;&lt;/tbody&gt;&lt;/table&gt;&lt;span&gt;&lt;div style=&quot;text-align: center&quot;&gt;&lt;span&gt;&lt;i&gt;описание предмета&lt;/i&gt;&lt;/span&gt;&lt;/div&gt;&lt;/span&gt;&lt;ul&gt;&lt;li&gt;&lt;span&gt;appid&lt;/span&gt;&lt;/li&gt;&lt;li&gt;&lt;span&gt;classid&lt;/span&gt;&lt;/li&gt;&lt;li&gt;icon&lt;/li&gt;&lt;li&gt;icon_large&lt;/li&gt;&lt;li&gt;value&lt;/li&gt;&lt;li&gt;type&lt;/li&gt;&lt;li&gt;market_name&lt;/li&gt;&lt;li&gt;market_hash&amp;nbsp;&lt;/li&gt;&lt;li&gt;tags&lt;/li&gt;&lt;/ul&gt;" style="verticalAlign=top;align=left;overflow=fill;html=1;rounded=0;glass=0;sketch=0;shadow=0;perimeterSpacing=1;fillColor=#FFFFFF;labelBorderColor=#000000;horizontal=1;metaEdit=0;collapsible=0;dropTarget=0;container=0;arcSize=12;fillOpacity=100;strokeOpacity=100;labelPadding=0;fontSize=14;fontColor=#000000;" parent="1" vertex="1"><mxGeometry x="720" y="40" width="160" height="240" as="geometry"/></mxCell><mxCell id="b2mbYdQ5OWqlQgxGF-j2-20" value="" style="edgeStyle=orthogonalEdgeStyle;curved=1;rounded=0;orthogonalLoop=1;jettySize=auto;html=1;fontSize=14;fontColor=#000000;strokeColor=#000000;" parent="1" source="b2mbYdQ5OWqlQgxGF-j2-13" target="b2mbYdQ5OWqlQgxGF-j2-18" edge="1"><mxGeometry relative="1" as="geometry"/></mxCell><mxCell id="b2mbYdQ5OWqlQgxGF-j2-13" value="&lt;div style=&quot;text-align: center ; box-sizing: border-box ; width: 100% ; background: rgb(228 , 228 , 228) ; padding: 2px ; font-size: 14px&quot;&gt;&lt;b&gt;trade history&lt;/b&gt;&lt;/div&gt;&lt;table style=&quot;width: 100% ; font-size: 14px&quot; cellpadding=&quot;2&quot; cellspacing=&quot;0&quot;&gt;&lt;tbody style=&quot;font-size: 14px&quot;&gt;&lt;tr style=&quot;font-size: 14px&quot;&gt;&lt;td style=&quot;font-size: 14px&quot;&gt;PK&lt;/td&gt;&lt;td style=&quot;font-size: 14px&quot;&gt;id&lt;/td&gt;&lt;/tr&gt;&lt;tr style=&quot;font-size: 14px&quot;&gt;&lt;td style=&quot;font-size: 14px&quot;&gt;&lt;/td&gt;&lt;td style=&quot;font-size: 14px&quot;&gt;&lt;/td&gt;&lt;/tr&gt;&lt;/tbody&gt;&lt;/table&gt;&lt;span&gt;&lt;div style=&quot;text-align: center&quot;&gt;&lt;span&gt;&lt;i&gt;история торговли&lt;/i&gt;&lt;/span&gt;&lt;/div&gt;&lt;/span&gt;&lt;ul&gt;&lt;li&gt;id&lt;/li&gt;&lt;li&gt;classid&lt;/li&gt;&lt;li&gt;date&lt;/li&gt;&lt;li&gt;gainorloss&lt;/li&gt;&lt;li&gt;price&lt;/li&gt;&lt;/ul&gt;" style="verticalAlign=top;align=left;overflow=fill;html=1;rounded=0;glass=0;sketch=0;shadow=0;perimeterSpacing=1;fillColor=#FFFFFF;labelBorderColor=#000000;horizontal=1;metaEdit=0;collapsible=0;dropTarget=0;container=0;arcSize=12;fillOpacity=100;strokeOpacity=100;labelPadding=0;fontSize=14;fontColor=#000000;" parent="1" vertex="1"><mxGeometry x="280" y="360" width="160" height="170" as="geometry"/></mxCell><mxCell id="b2mbYdQ5OWqlQgxGF-j2-17" value="" style="edgeStyle=orthogonalEdgeStyle;curved=1;rounded=0;orthogonalLoop=1;jettySize=auto;html=1;fontSize=14;fontColor=#000000;strokeColor=#000000;" parent="1" source="b2mbYdQ5OWqlQgxGF-j2-15" target="b2mbYdQ5OWqlQgxGF-j2-13" edge="1"><mxGeometry relative="1" as="geometry"/></mxCell><mxCell id="b2mbYdQ5OWqlQgxGF-j2-15" value="&lt;div style=&quot;text-align: center ; box-sizing: border-box ; width: 100% ; background: rgb(228 , 228 , 228) ; padding: 2px ; font-size: 14px&quot;&gt;&lt;b&gt;user trade history&lt;/b&gt;&lt;/div&gt;&lt;table style=&quot;width: 100% ; font-size: 14px&quot; cellpadding=&quot;2&quot; cellspacing=&quot;0&quot;&gt;&lt;tbody style=&quot;font-size: 14px&quot;&gt;&lt;tr style=&quot;font-size: 14px&quot;&gt;&lt;td style=&quot;font-size: 14px&quot;&gt;PK&lt;/td&gt;&lt;td style=&quot;font-size: 14px&quot;&gt;steamID&lt;/td&gt;&lt;/tr&gt;&lt;tr style=&quot;font-size: 14px&quot;&gt;&lt;td style=&quot;font-size: 14px&quot;&gt;FK&lt;/td&gt;&lt;td style=&quot;font-size: 14px&quot;&gt;id&lt;/td&gt;&lt;/tr&gt;&lt;tr style=&quot;font-size: 14px&quot;&gt;&lt;td style=&quot;font-size: 14px&quot;&gt;&lt;br style=&quot;font-size: 14px&quot;&gt;&lt;/td&gt;&lt;td style=&quot;font-size: 14px&quot;&gt;&lt;br style=&quot;font-size: 14px&quot;&gt;&lt;/td&gt;&lt;/tr&gt;&lt;/tbody&gt;&lt;/table&gt;" style="verticalAlign=top;align=left;overflow=fill;html=1;rounded=0;glass=0;sketch=0;shadow=0;perimeterSpacing=1;fillColor=#FFFFFF;labelBorderColor=#000000;horizontal=1;metaEdit=0;collapsible=0;dropTarget=0;container=0;arcSize=12;fillOpacity=100;strokeOpacity=100;labelPadding=0;fontSize=14;fontColor=#000000;" parent="1" vertex="1"><mxGeometry x="40" y="360" width="160" height="80" as="geometry"/></mxCell><mxCell id="b2mbYdQ5OWqlQgxGF-j2-18" value="&lt;div style=&quot;text-align: center ; box-sizing: border-box ; width: 100% ; background: rgb(228 , 228 , 228) ; padding: 2px ; font-size: 14px&quot;&gt;&lt;b&gt;trade item descriptions&lt;/b&gt;&lt;/div&gt;&lt;table style=&quot;width: 100% ; font-size: 14px&quot; cellpadding=&quot;2&quot; cellspacing=&quot;0&quot;&gt;&lt;tbody style=&quot;font-size: 14px&quot;&gt;&lt;tr style=&quot;font-size: 14px&quot;&gt;&lt;td style=&quot;font-size: 14px&quot;&gt;PK&lt;/td&gt;&lt;td style=&quot;font-size: 14px&quot;&gt;id&lt;/td&gt;&lt;/tr&gt;&lt;tr style=&quot;font-size: 14px&quot;&gt;&lt;td style=&quot;font-size: 14px&quot;&gt;FK&lt;/td&gt;&lt;td style=&quot;font-size: 14px&quot;&gt;classid&lt;/td&gt;&lt;/tr&gt;&lt;tr style=&quot;font-size: 14px&quot;&gt;&lt;td style=&quot;font-size: 14px&quot;&gt;&lt;br style=&quot;font-size: 14px&quot;&gt;&lt;/td&gt;&lt;td style=&quot;font-size: 14px&quot;&gt;&lt;br style=&quot;font-size: 14px&quot;&gt;&lt;/td&gt;&lt;/tr&gt;&lt;/tbody&gt;&lt;/table&gt;" style="verticalAlign=top;align=left;overflow=fill;html=1;rounded=0;glass=0;sketch=0;shadow=0;perimeterSpacing=1;fillColor=#FFFFFF;labelBorderColor=#000000;horizontal=1;metaEdit=0;collapsible=0;dropTarget=0;container=0;arcSize=12;fillOpacity=100;strokeOpacity=100;labelPadding=0;fontSize=14;fontColor=#000000;" parent="1" vertex="1"><mxGeometry x="520" y="360" width="160" height="80" as="geometry"/></mxCell></root></mxGraphModel></diagram></mxfile>